<mxfile host="app.diagrams.net" agent="Mozilla/5.0 (Windows NT 10.0; Win64; x64) AppleWebKit/537.36 (KHTML, like Gecko) Chrome/136.0.0.0 Safari/537.36" version="27.0.6">
  <diagram name="페이지-1" id="ng-VX-1AQqGaXfYT2qCI">
    <mxGraphModel dx="1023" dy="448" grid="1" gridSize="10" guides="1" tooltips="1" connect="1" arrows="1" fold="1" page="1" pageScale="1" pageWidth="827" pageHeight="1169" background="none" math="0" shadow="0">
      <root>
        <mxCell id="0" />
        <mxCell id="1" parent="0" />
        <mxCell id="5EpYRCwI928EqhIkYV5D-20" value="&lt;b&gt;sd&lt;/b&gt;&amp;nbsp;회원가입" style="shape=umlFrame;whiteSpace=wrap;html=1;pointerEvents=0;width=110;height=30;" parent="1" vertex="1">
          <mxGeometry x="60" y="50" width="540" height="370" as="geometry" />
        </mxCell>
        <mxCell id="5EpYRCwI928EqhIkYV5D-21" value=": Non-User" style="shape=umlActor;verticalLabelPosition=bottom;verticalAlign=top;html=1;" parent="1" vertex="1">
          <mxGeometry x="110" y="150" width="30" height="60" as="geometry" />
        </mxCell>
        <mxCell id="5EpYRCwI928EqhIkYV5D-22" value=": SignInUI" style="shape=umlBoundary;whiteSpace=wrap;html=1;" parent="1" vertex="1">
          <mxGeometry x="220" y="140" width="100" height="80" as="geometry" />
        </mxCell>
        <mxCell id="5EpYRCwI928EqhIkYV5D-23" value=": SignIn" style="ellipse;shape=umlControl;whiteSpace=wrap;html=1;" parent="1" vertex="1">
          <mxGeometry x="414" y="140" width="70" height="80" as="geometry" />
        </mxCell>
        <mxCell id="5EpYRCwI928EqhIkYV5D-24" value="new User:&lt;div&gt;User&lt;/div&gt;" style="ellipse;shape=umlEntity;whiteSpace=wrap;html=1;" parent="1" vertex="1">
          <mxGeometry x="409" y="280" width="80" height="80" as="geometry" />
        </mxCell>
        <mxCell id="5EpYRCwI928EqhIkYV5D-25" value="" style="endArrow=none;html=1;rounded=0;exitX=-0.007;exitY=0.503;exitDx=0;exitDy=0;exitPerimeter=0;" parent="1" source="5EpYRCwI928EqhIkYV5D-22" target="5EpYRCwI928EqhIkYV5D-21" edge="1">
          <mxGeometry width="50" height="50" relative="1" as="geometry">
            <mxPoint x="200" y="180" as="sourcePoint" />
            <mxPoint x="170" y="180" as="targetPoint" />
          </mxGeometry>
        </mxCell>
        <mxCell id="5EpYRCwI928EqhIkYV5D-26" value="" style="endArrow=classic;html=1;rounded=0;" parent="1" edge="1">
          <mxGeometry width="50" height="50" relative="1" as="geometry">
            <mxPoint x="160" y="170" as="sourcePoint" />
            <mxPoint x="210" y="170" as="targetPoint" />
          </mxGeometry>
        </mxCell>
        <mxCell id="5EpYRCwI928EqhIkYV5D-27" value="2: insertInfo()" style="text;html=1;align=center;verticalAlign=middle;whiteSpace=wrap;rounded=0;" parent="1" vertex="1">
          <mxGeometry x="140" y="140" width="90" height="30" as="geometry" />
        </mxCell>
        <mxCell id="5EpYRCwI928EqhIkYV5D-28" value="" style="endArrow=classic;html=1;rounded=0;" parent="1" edge="1">
          <mxGeometry width="50" height="50" relative="1" as="geometry">
            <mxPoint x="350" y="170" as="sourcePoint" />
            <mxPoint x="400" y="170" as="targetPoint" />
          </mxGeometry>
        </mxCell>
        <mxCell id="5EpYRCwI928EqhIkYV5D-29" value="" style="endArrow=none;html=1;rounded=0;exitX=0.006;exitY=0.497;exitDx=0;exitDy=0;exitPerimeter=0;entryX=0.997;entryY=0.535;entryDx=0;entryDy=0;entryPerimeter=0;" parent="1" source="5EpYRCwI928EqhIkYV5D-23" edge="1">
          <mxGeometry width="50" height="50" relative="1" as="geometry">
            <mxPoint x="414.71999999999997" y="180.36000000000004" as="sourcePoint" />
            <mxPoint x="320.00000000000006" y="179.64000000000001" as="targetPoint" />
          </mxGeometry>
        </mxCell>
        <mxCell id="5EpYRCwI928EqhIkYV5D-30" value="2.1: signIn()" style="text;html=1;align=center;verticalAlign=middle;whiteSpace=wrap;rounded=0;" parent="1" vertex="1">
          <mxGeometry x="340" y="140" width="70" height="30" as="geometry" />
        </mxCell>
        <mxCell id="5EpYRCwI928EqhIkYV5D-31" value="" style="endArrow=classic;html=1;rounded=0;" parent="1" edge="1">
          <mxGeometry width="50" height="50" relative="1" as="geometry">
            <mxPoint x="400" y="190" as="sourcePoint" />
            <mxPoint x="350" y="190" as="targetPoint" />
          </mxGeometry>
        </mxCell>
        <mxCell id="5EpYRCwI928EqhIkYV5D-32" value="1: startInterface()" style="text;html=1;align=center;verticalAlign=middle;whiteSpace=wrap;rounded=0;" parent="1" vertex="1">
          <mxGeometry x="320" y="190" width="100" height="30" as="geometry" />
        </mxCell>
        <mxCell id="5EpYRCwI928EqhIkYV5D-33" value="" style="endArrow=none;html=1;rounded=0;entryX=0.513;entryY=1.011;entryDx=0;entryDy=0;entryPerimeter=0;exitX=0.5;exitY=0;exitDx=0;exitDy=0;" parent="1" source="5EpYRCwI928EqhIkYV5D-24" edge="1">
          <mxGeometry width="50" height="50" relative="1" as="geometry">
            <mxPoint x="448.55" y="279.12" as="sourcePoint" />
            <mxPoint x="449.4600000000001" y="220" as="targetPoint" />
          </mxGeometry>
        </mxCell>
        <mxCell id="5EpYRCwI928EqhIkYV5D-34" value="2.1.1: addAccount()" style="text;html=1;align=center;verticalAlign=middle;whiteSpace=wrap;rounded=0;" parent="1" vertex="1">
          <mxGeometry x="470" y="230" width="110" height="30" as="geometry" />
        </mxCell>
        <mxCell id="5EpYRCwI928EqhIkYV5D-37" value="" style="endArrow=classic;html=1;rounded=0;" parent="1" edge="1">
          <mxGeometry width="50" height="50" relative="1" as="geometry">
            <mxPoint x="460" y="230" as="sourcePoint" />
            <mxPoint x="460" y="270" as="targetPoint" />
          </mxGeometry>
        </mxCell>
        <mxCell id="5EpYRCwI928EqhIkYV5D-38" value="&lt;b&gt;sd&lt;/b&gt;&amp;nbsp;로그인" style="shape=umlFrame;whiteSpace=wrap;html=1;pointerEvents=0;width=110;height=30;" parent="1" vertex="1">
          <mxGeometry x="60" y="530" width="540" height="370" as="geometry" />
        </mxCell>
        <mxCell id="5EpYRCwI928EqhIkYV5D-39" value=": User" style="shape=umlActor;verticalLabelPosition=bottom;verticalAlign=top;html=1;" parent="1" vertex="1">
          <mxGeometry x="110" y="630" width="30" height="60" as="geometry" />
        </mxCell>
        <mxCell id="5EpYRCwI928EqhIkYV5D-40" value=": LoginUI" style="shape=umlBoundary;whiteSpace=wrap;html=1;" parent="1" vertex="1">
          <mxGeometry x="220" y="620" width="100" height="80" as="geometry" />
        </mxCell>
        <mxCell id="5EpYRCwI928EqhIkYV5D-41" value=": Login" style="ellipse;shape=umlControl;whiteSpace=wrap;html=1;" parent="1" vertex="1">
          <mxGeometry x="414" y="620" width="70" height="80" as="geometry" />
        </mxCell>
        <mxCell id="5EpYRCwI928EqhIkYV5D-42" value="&lt;div&gt;: User&lt;/div&gt;" style="ellipse;shape=umlEntity;whiteSpace=wrap;html=1;" parent="1" vertex="1">
          <mxGeometry x="409" y="760" width="80" height="80" as="geometry" />
        </mxCell>
        <mxCell id="5EpYRCwI928EqhIkYV5D-43" value="" style="endArrow=none;html=1;rounded=0;exitX=-0.007;exitY=0.503;exitDx=0;exitDy=0;exitPerimeter=0;" parent="1" source="5EpYRCwI928EqhIkYV5D-40" target="5EpYRCwI928EqhIkYV5D-39" edge="1">
          <mxGeometry width="50" height="50" relative="1" as="geometry">
            <mxPoint x="200" y="660" as="sourcePoint" />
            <mxPoint x="170" y="660" as="targetPoint" />
          </mxGeometry>
        </mxCell>
        <mxCell id="5EpYRCwI928EqhIkYV5D-44" value="" style="endArrow=classic;html=1;rounded=0;" parent="1" edge="1">
          <mxGeometry width="50" height="50" relative="1" as="geometry">
            <mxPoint x="160" y="650" as="sourcePoint" />
            <mxPoint x="210" y="650" as="targetPoint" />
          </mxGeometry>
        </mxCell>
        <mxCell id="5EpYRCwI928EqhIkYV5D-45" value="2: insertInfo()" style="text;html=1;align=center;verticalAlign=middle;whiteSpace=wrap;rounded=0;" parent="1" vertex="1">
          <mxGeometry x="140" y="620" width="90" height="30" as="geometry" />
        </mxCell>
        <mxCell id="5EpYRCwI928EqhIkYV5D-46" value="" style="endArrow=classic;html=1;rounded=0;" parent="1" edge="1">
          <mxGeometry width="50" height="50" relative="1" as="geometry">
            <mxPoint x="350" y="650" as="sourcePoint" />
            <mxPoint x="400" y="650" as="targetPoint" />
          </mxGeometry>
        </mxCell>
        <mxCell id="5EpYRCwI928EqhIkYV5D-47" value="" style="endArrow=none;html=1;rounded=0;exitX=0.006;exitY=0.497;exitDx=0;exitDy=0;exitPerimeter=0;entryX=0.997;entryY=0.535;entryDx=0;entryDy=0;entryPerimeter=0;" parent="1" source="5EpYRCwI928EqhIkYV5D-41" edge="1">
          <mxGeometry width="50" height="50" relative="1" as="geometry">
            <mxPoint x="414.71999999999997" y="660.36" as="sourcePoint" />
            <mxPoint x="320.00000000000006" y="659.64" as="targetPoint" />
          </mxGeometry>
        </mxCell>
        <mxCell id="5EpYRCwI928EqhIkYV5D-48" value="2.1: login()" style="text;html=1;align=center;verticalAlign=middle;whiteSpace=wrap;rounded=0;" parent="1" vertex="1">
          <mxGeometry x="340" y="620" width="70" height="30" as="geometry" />
        </mxCell>
        <mxCell id="5EpYRCwI928EqhIkYV5D-49" value="" style="endArrow=classic;html=1;rounded=0;" parent="1" edge="1">
          <mxGeometry width="50" height="50" relative="1" as="geometry">
            <mxPoint x="400" y="670" as="sourcePoint" />
            <mxPoint x="350" y="670" as="targetPoint" />
          </mxGeometry>
        </mxCell>
        <mxCell id="5EpYRCwI928EqhIkYV5D-50" value="1: startInterface()" style="text;html=1;align=center;verticalAlign=middle;whiteSpace=wrap;rounded=0;" parent="1" vertex="1">
          <mxGeometry x="320" y="670" width="100" height="30" as="geometry" />
        </mxCell>
        <mxCell id="5EpYRCwI928EqhIkYV5D-51" value="" style="endArrow=none;html=1;rounded=0;entryX=0.513;entryY=1.011;entryDx=0;entryDy=0;entryPerimeter=0;exitX=0.5;exitY=0;exitDx=0;exitDy=0;" parent="1" source="5EpYRCwI928EqhIkYV5D-42" edge="1">
          <mxGeometry width="50" height="50" relative="1" as="geometry">
            <mxPoint x="448.55" y="759.12" as="sourcePoint" />
            <mxPoint x="449.4600000000001" y="700" as="targetPoint" />
          </mxGeometry>
        </mxCell>
        <mxCell id="5EpYRCwI928EqhIkYV5D-52" value="2.1.1: isValidLogin()" style="text;html=1;align=center;verticalAlign=middle;whiteSpace=wrap;rounded=0;" parent="1" vertex="1">
          <mxGeometry x="470" y="710" width="110" height="30" as="geometry" />
        </mxCell>
        <mxCell id="5EpYRCwI928EqhIkYV5D-53" value="" style="endArrow=classic;html=1;rounded=0;" parent="1" edge="1">
          <mxGeometry width="50" height="50" relative="1" as="geometry">
            <mxPoint x="460" y="710" as="sourcePoint" />
            <mxPoint x="460" y="750" as="targetPoint" />
          </mxGeometry>
        </mxCell>
        <mxCell id="5EpYRCwI928EqhIkYV5D-231" value="&lt;b&gt;sd&lt;/b&gt;&amp;nbsp;로그아웃" style="shape=umlFrame;whiteSpace=wrap;html=1;pointerEvents=0;width=110;height=30;" parent="1" vertex="1">
          <mxGeometry x="60" y="1430" width="540" height="370" as="geometry" />
        </mxCell>
        <mxCell id="5EpYRCwI928EqhIkYV5D-232" value=": User" style="shape=umlActor;verticalLabelPosition=bottom;verticalAlign=top;html=1;" parent="1" vertex="1">
          <mxGeometry x="110" y="1530" width="30" height="60" as="geometry" />
        </mxCell>
        <mxCell id="5EpYRCwI928EqhIkYV5D-233" value=": LogoutUI" style="shape=umlBoundary;whiteSpace=wrap;html=1;" parent="1" vertex="1">
          <mxGeometry x="220" y="1520" width="100" height="80" as="geometry" />
        </mxCell>
        <mxCell id="5EpYRCwI928EqhIkYV5D-234" value=": Logout" style="ellipse;shape=umlControl;whiteSpace=wrap;html=1;" parent="1" vertex="1">
          <mxGeometry x="414" y="1520" width="70" height="80" as="geometry" />
        </mxCell>
        <mxCell id="5EpYRCwI928EqhIkYV5D-235" value="&lt;div&gt;: User&lt;/div&gt;" style="ellipse;shape=umlEntity;whiteSpace=wrap;html=1;" parent="1" vertex="1">
          <mxGeometry x="409" y="1660" width="80" height="80" as="geometry" />
        </mxCell>
        <mxCell id="5EpYRCwI928EqhIkYV5D-236" value="" style="endArrow=none;html=1;rounded=0;exitX=-0.007;exitY=0.503;exitDx=0;exitDy=0;exitPerimeter=0;" parent="1" source="5EpYRCwI928EqhIkYV5D-233" target="5EpYRCwI928EqhIkYV5D-232" edge="1">
          <mxGeometry width="50" height="50" relative="1" as="geometry">
            <mxPoint x="200" y="1560" as="sourcePoint" />
            <mxPoint x="170" y="1560" as="targetPoint" />
          </mxGeometry>
        </mxCell>
        <mxCell id="5EpYRCwI928EqhIkYV5D-237" value="" style="endArrow=classic;html=1;rounded=0;" parent="1" edge="1">
          <mxGeometry width="50" height="50" relative="1" as="geometry">
            <mxPoint x="160" y="1550" as="sourcePoint" />
            <mxPoint x="210" y="1550" as="targetPoint" />
          </mxGeometry>
        </mxCell>
        <mxCell id="5EpYRCwI928EqhIkYV5D-238" value="2: selectLogout()" style="text;html=1;align=center;verticalAlign=middle;whiteSpace=wrap;rounded=0;" parent="1" vertex="1">
          <mxGeometry x="140" y="1520" width="100" height="30" as="geometry" />
        </mxCell>
        <mxCell id="5EpYRCwI928EqhIkYV5D-239" value="" style="endArrow=classic;html=1;rounded=0;" parent="1" edge="1">
          <mxGeometry width="50" height="50" relative="1" as="geometry">
            <mxPoint x="350" y="1550" as="sourcePoint" />
            <mxPoint x="400" y="1550" as="targetPoint" />
          </mxGeometry>
        </mxCell>
        <mxCell id="5EpYRCwI928EqhIkYV5D-240" value="" style="endArrow=none;html=1;rounded=0;exitX=0.006;exitY=0.497;exitDx=0;exitDy=0;exitPerimeter=0;entryX=0.997;entryY=0.535;entryDx=0;entryDy=0;entryPerimeter=0;" parent="1" source="5EpYRCwI928EqhIkYV5D-234" edge="1">
          <mxGeometry width="50" height="50" relative="1" as="geometry">
            <mxPoint x="414.71999999999997" y="1560.3600000000001" as="sourcePoint" />
            <mxPoint x="320.00000000000006" y="1559.6399999999999" as="targetPoint" />
          </mxGeometry>
        </mxCell>
        <mxCell id="5EpYRCwI928EqhIkYV5D-241" value="2.1: logout()" style="text;html=1;align=center;verticalAlign=middle;whiteSpace=wrap;rounded=0;" parent="1" vertex="1">
          <mxGeometry x="340" y="1520" width="70" height="30" as="geometry" />
        </mxCell>
        <mxCell id="5EpYRCwI928EqhIkYV5D-242" value="" style="endArrow=classic;html=1;rounded=0;" parent="1" edge="1">
          <mxGeometry width="50" height="50" relative="1" as="geometry">
            <mxPoint x="400" y="1570" as="sourcePoint" />
            <mxPoint x="350" y="1570" as="targetPoint" />
          </mxGeometry>
        </mxCell>
        <mxCell id="5EpYRCwI928EqhIkYV5D-243" value="1: startInterface()" style="text;html=1;align=center;verticalAlign=middle;whiteSpace=wrap;rounded=0;" parent="1" vertex="1">
          <mxGeometry x="320" y="1570" width="100" height="30" as="geometry" />
        </mxCell>
        <mxCell id="5EpYRCwI928EqhIkYV5D-244" value="" style="endArrow=none;html=1;rounded=0;entryX=0.513;entryY=1.011;entryDx=0;entryDy=0;entryPerimeter=0;exitX=0.5;exitY=0;exitDx=0;exitDy=0;" parent="1" source="5EpYRCwI928EqhIkYV5D-235" edge="1">
          <mxGeometry width="50" height="50" relative="1" as="geometry">
            <mxPoint x="448.55" y="1659.12" as="sourcePoint" />
            <mxPoint x="449.4600000000001" y="1600" as="targetPoint" />
          </mxGeometry>
        </mxCell>
        <mxCell id="5EpYRCwI928EqhIkYV5D-245" value="2.1.1: getId()" style="text;html=1;align=center;verticalAlign=middle;whiteSpace=wrap;rounded=0;" parent="1" vertex="1">
          <mxGeometry x="460" y="1620" width="110" height="30" as="geometry" />
        </mxCell>
        <mxCell id="5EpYRCwI928EqhIkYV5D-246" value="" style="endArrow=classic;html=1;rounded=0;" parent="1" edge="1">
          <mxGeometry width="50" height="50" relative="1" as="geometry">
            <mxPoint x="460" y="1610" as="sourcePoint" />
            <mxPoint x="460" y="1650" as="targetPoint" />
          </mxGeometry>
        </mxCell>
        <mxCell id="5EpYRCwI928EqhIkYV5D-247" value="&lt;b&gt;sd&lt;/b&gt;&amp;nbsp;자전거 등록" style="shape=umlFrame;whiteSpace=wrap;html=1;pointerEvents=0;width=110;height=30;" parent="1" vertex="1">
          <mxGeometry x="60" y="1910" width="540" height="370" as="geometry" />
        </mxCell>
        <mxCell id="5EpYRCwI928EqhIkYV5D-248" value=": Admin" style="shape=umlActor;verticalLabelPosition=bottom;verticalAlign=top;html=1;" parent="1" vertex="1">
          <mxGeometry x="110" y="2010" width="30" height="60" as="geometry" />
        </mxCell>
        <mxCell id="5EpYRCwI928EqhIkYV5D-249" value=": AddBicycleUI" style="shape=umlBoundary;whiteSpace=wrap;html=1;" parent="1" vertex="1">
          <mxGeometry x="220" y="2000" width="100" height="80" as="geometry" />
        </mxCell>
        <mxCell id="5EpYRCwI928EqhIkYV5D-250" value=": AddBicycle" style="ellipse;shape=umlControl;whiteSpace=wrap;html=1;" parent="1" vertex="1">
          <mxGeometry x="414" y="2000" width="70" height="80" as="geometry" />
        </mxCell>
        <mxCell id="5EpYRCwI928EqhIkYV5D-251" value="new Bicycle:&lt;div&gt;Bicycle&lt;/div&gt;" style="ellipse;shape=umlEntity;whiteSpace=wrap;html=1;" parent="1" vertex="1">
          <mxGeometry x="409" y="2140" width="80" height="80" as="geometry" />
        </mxCell>
        <mxCell id="5EpYRCwI928EqhIkYV5D-252" value="" style="endArrow=none;html=1;rounded=0;exitX=-0.007;exitY=0.503;exitDx=0;exitDy=0;exitPerimeter=0;" parent="1" source="5EpYRCwI928EqhIkYV5D-249" target="5EpYRCwI928EqhIkYV5D-248" edge="1">
          <mxGeometry width="50" height="50" relative="1" as="geometry">
            <mxPoint x="200" y="2040" as="sourcePoint" />
            <mxPoint x="170" y="2040" as="targetPoint" />
          </mxGeometry>
        </mxCell>
        <mxCell id="5EpYRCwI928EqhIkYV5D-253" value="" style="endArrow=classic;html=1;rounded=0;" parent="1" edge="1">
          <mxGeometry width="50" height="50" relative="1" as="geometry">
            <mxPoint x="160" y="2030" as="sourcePoint" />
            <mxPoint x="210" y="2030" as="targetPoint" />
          </mxGeometry>
        </mxCell>
        <mxCell id="5EpYRCwI928EqhIkYV5D-254" value="2: insertBicycleInfo()" style="text;html=1;align=center;verticalAlign=middle;whiteSpace=wrap;rounded=0;" parent="1" vertex="1">
          <mxGeometry x="130" y="1990" width="120" height="30" as="geometry" />
        </mxCell>
        <mxCell id="5EpYRCwI928EqhIkYV5D-255" value="" style="endArrow=classic;html=1;rounded=0;" parent="1" edge="1">
          <mxGeometry width="50" height="50" relative="1" as="geometry">
            <mxPoint x="350" y="2030" as="sourcePoint" />
            <mxPoint x="400" y="2030" as="targetPoint" />
          </mxGeometry>
        </mxCell>
        <mxCell id="5EpYRCwI928EqhIkYV5D-256" value="" style="endArrow=none;html=1;rounded=0;exitX=0.006;exitY=0.497;exitDx=0;exitDy=0;exitPerimeter=0;entryX=0.997;entryY=0.535;entryDx=0;entryDy=0;entryPerimeter=0;" parent="1" source="5EpYRCwI928EqhIkYV5D-250" edge="1">
          <mxGeometry width="50" height="50" relative="1" as="geometry">
            <mxPoint x="414.71999999999997" y="2040.3600000000001" as="sourcePoint" />
            <mxPoint x="320.00000000000006" y="2039.6400000000003" as="targetPoint" />
          </mxGeometry>
        </mxCell>
        <mxCell id="5EpYRCwI928EqhIkYV5D-257" value="2.1: addBicycle()" style="text;html=1;align=center;verticalAlign=middle;whiteSpace=wrap;rounded=0;" parent="1" vertex="1">
          <mxGeometry x="325" y="1990" width="100" height="30" as="geometry" />
        </mxCell>
        <mxCell id="5EpYRCwI928EqhIkYV5D-258" value="" style="endArrow=classic;html=1;rounded=0;" parent="1" edge="1">
          <mxGeometry width="50" height="50" relative="1" as="geometry">
            <mxPoint x="400" y="2050" as="sourcePoint" />
            <mxPoint x="350" y="2050" as="targetPoint" />
          </mxGeometry>
        </mxCell>
        <mxCell id="5EpYRCwI928EqhIkYV5D-259" value="1: startInterface()" style="text;html=1;align=center;verticalAlign=middle;whiteSpace=wrap;rounded=0;" parent="1" vertex="1">
          <mxGeometry x="320" y="2050" width="100" height="30" as="geometry" />
        </mxCell>
        <mxCell id="5EpYRCwI928EqhIkYV5D-260" value="" style="endArrow=none;html=1;rounded=0;entryX=0.513;entryY=1.011;entryDx=0;entryDy=0;entryPerimeter=0;exitX=0.5;exitY=0;exitDx=0;exitDy=0;" parent="1" source="5EpYRCwI928EqhIkYV5D-251" edge="1">
          <mxGeometry width="50" height="50" relative="1" as="geometry">
            <mxPoint x="448.55" y="2139.12" as="sourcePoint" />
            <mxPoint x="449.4600000000001" y="2080" as="targetPoint" />
          </mxGeometry>
        </mxCell>
        <mxCell id="5EpYRCwI928EqhIkYV5D-261" value="2.1.1: Bicycle()" style="text;html=1;align=center;verticalAlign=middle;whiteSpace=wrap;rounded=0;" parent="1" vertex="1">
          <mxGeometry x="470" y="2090" width="110" height="30" as="geometry" />
        </mxCell>
        <mxCell id="5EpYRCwI928EqhIkYV5D-262" value="" style="endArrow=classic;html=1;rounded=0;" parent="1" edge="1">
          <mxGeometry width="50" height="50" relative="1" as="geometry">
            <mxPoint x="460" y="2090" as="sourcePoint" />
            <mxPoint x="460" y="2130" as="targetPoint" />
          </mxGeometry>
        </mxCell>
        <mxCell id="5EpYRCwI928EqhIkYV5D-263" value="&lt;b&gt;sd&lt;/b&gt;&amp;nbsp;자전거 대여" style="shape=umlFrame;whiteSpace=wrap;html=1;pointerEvents=0;width=110;height=30;" parent="1" vertex="1">
          <mxGeometry x="60" y="2608" width="570" height="370" as="geometry" />
        </mxCell>
        <mxCell id="5EpYRCwI928EqhIkYV5D-264" value=": User" style="shape=umlActor;verticalLabelPosition=bottom;verticalAlign=top;html=1;" parent="1" vertex="1">
          <mxGeometry x="110" y="2708" width="30" height="60" as="geometry" />
        </mxCell>
        <mxCell id="5EpYRCwI928EqhIkYV5D-265" value="&lt;font style=&quot;font-size: 11px;&quot;&gt;: RentBicycleUI&lt;/font&gt;" style="shape=umlBoundary;whiteSpace=wrap;html=1;" parent="1" vertex="1">
          <mxGeometry x="220" y="2698" width="100" height="80" as="geometry" />
        </mxCell>
        <mxCell id="5EpYRCwI928EqhIkYV5D-266" value="&lt;font style=&quot;font-size: 11px;&quot;&gt;: RentBicycle&lt;/font&gt;" style="ellipse;shape=umlControl;whiteSpace=wrap;html=1;" parent="1" vertex="1">
          <mxGeometry x="414" y="2698" width="70" height="80" as="geometry" />
        </mxCell>
        <mxCell id="5EpYRCwI928EqhIkYV5D-267" value="&lt;div&gt;: Bicycle&lt;/div&gt;" style="ellipse;shape=umlEntity;whiteSpace=wrap;html=1;" parent="1" vertex="1">
          <mxGeometry x="460" y="2838" width="80" height="80" as="geometry" />
        </mxCell>
        <mxCell id="5EpYRCwI928EqhIkYV5D-268" value="" style="endArrow=none;html=1;rounded=0;exitX=-0.007;exitY=0.503;exitDx=0;exitDy=0;exitPerimeter=0;" parent="1" source="5EpYRCwI928EqhIkYV5D-265" target="5EpYRCwI928EqhIkYV5D-264" edge="1">
          <mxGeometry width="50" height="50" relative="1" as="geometry">
            <mxPoint x="200" y="2738" as="sourcePoint" />
            <mxPoint x="170" y="2738" as="targetPoint" />
          </mxGeometry>
        </mxCell>
        <mxCell id="5EpYRCwI928EqhIkYV5D-269" value="" style="endArrow=classic;html=1;rounded=0;" parent="1" edge="1">
          <mxGeometry width="50" height="50" relative="1" as="geometry">
            <mxPoint x="160" y="2728" as="sourcePoint" />
            <mxPoint x="210" y="2728" as="targetPoint" />
          </mxGeometry>
        </mxCell>
        <mxCell id="5EpYRCwI928EqhIkYV5D-270" value="2: selectBicycle()" style="text;html=1;align=center;verticalAlign=middle;whiteSpace=wrap;rounded=0;" parent="1" vertex="1">
          <mxGeometry x="130" y="2688" width="120" height="30" as="geometry" />
        </mxCell>
        <mxCell id="5EpYRCwI928EqhIkYV5D-271" value="" style="endArrow=classic;html=1;rounded=0;" parent="1" edge="1">
          <mxGeometry width="50" height="50" relative="1" as="geometry">
            <mxPoint x="350" y="2728" as="sourcePoint" />
            <mxPoint x="400" y="2728" as="targetPoint" />
          </mxGeometry>
        </mxCell>
        <mxCell id="5EpYRCwI928EqhIkYV5D-272" value="" style="endArrow=none;html=1;rounded=0;exitX=0.006;exitY=0.497;exitDx=0;exitDy=0;exitPerimeter=0;entryX=0.997;entryY=0.535;entryDx=0;entryDy=0;entryPerimeter=0;" parent="1" source="5EpYRCwI928EqhIkYV5D-266" edge="1">
          <mxGeometry width="50" height="50" relative="1" as="geometry">
            <mxPoint x="414.71999999999997" y="2738.36" as="sourcePoint" />
            <mxPoint x="320.00000000000006" y="2737.6400000000003" as="targetPoint" />
          </mxGeometry>
        </mxCell>
        <mxCell id="5EpYRCwI928EqhIkYV5D-273" value="2.1: rentBicycle()" style="text;html=1;align=center;verticalAlign=middle;whiteSpace=wrap;rounded=0;" parent="1" vertex="1">
          <mxGeometry x="325" y="2688" width="100" height="30" as="geometry" />
        </mxCell>
        <mxCell id="5EpYRCwI928EqhIkYV5D-274" value="" style="endArrow=classic;html=1;rounded=0;" parent="1" edge="1">
          <mxGeometry width="50" height="50" relative="1" as="geometry">
            <mxPoint x="400" y="2748" as="sourcePoint" />
            <mxPoint x="350" y="2748" as="targetPoint" />
          </mxGeometry>
        </mxCell>
        <mxCell id="5EpYRCwI928EqhIkYV5D-275" value="1: startInterface()" style="text;html=1;align=center;verticalAlign=middle;whiteSpace=wrap;rounded=0;" parent="1" vertex="1">
          <mxGeometry x="320" y="2748" width="100" height="30" as="geometry" />
        </mxCell>
        <mxCell id="5EpYRCwI928EqhIkYV5D-276" value="" style="endArrow=none;html=1;rounded=0;entryX=0.513;entryY=1.011;entryDx=0;entryDy=0;entryPerimeter=0;exitX=0.5;exitY=0;exitDx=0;exitDy=0;" parent="1" source="5EpYRCwI928EqhIkYV5D-267" edge="1">
          <mxGeometry width="50" height="50" relative="1" as="geometry">
            <mxPoint x="448.55" y="2837.12" as="sourcePoint" />
            <mxPoint x="449.4600000000001" y="2778" as="targetPoint" />
          </mxGeometry>
        </mxCell>
        <mxCell id="5EpYRCwI928EqhIkYV5D-277" value="2.1.2: updateBicycle()" style="text;html=1;align=center;verticalAlign=middle;whiteSpace=wrap;rounded=0;" parent="1" vertex="1">
          <mxGeometry x="500" y="2788" width="120" height="30" as="geometry" />
        </mxCell>
        <mxCell id="5EpYRCwI928EqhIkYV5D-278" value=": RentalUser" style="ellipse;shape=umlEntity;whiteSpace=wrap;html=1;" parent="1" vertex="1">
          <mxGeometry x="360" y="2838" width="80" height="80" as="geometry" />
        </mxCell>
        <mxCell id="5EpYRCwI928EqhIkYV5D-279" value="" style="endArrow=none;html=1;rounded=0;entryX=0.513;entryY=1.011;entryDx=0;entryDy=0;entryPerimeter=0;exitX=0.5;exitY=0;exitDx=0;exitDy=0;" parent="1" edge="1">
          <mxGeometry width="50" height="50" relative="1" as="geometry">
            <mxPoint x="450.53999999999996" y="2778" as="sourcePoint" />
            <mxPoint x="400.00000000000006" y="2838" as="targetPoint" />
          </mxGeometry>
        </mxCell>
        <mxCell id="5EpYRCwI928EqhIkYV5D-280" value="" style="endArrow=classic;html=1;rounded=0;" parent="1" edge="1">
          <mxGeometry width="50" height="50" relative="1" as="geometry">
            <mxPoint x="480" y="2796" as="sourcePoint" />
            <mxPoint x="500" y="2818" as="targetPoint" />
            <Array as="points">
              <mxPoint x="500" y="2818" />
            </Array>
          </mxGeometry>
        </mxCell>
        <mxCell id="5EpYRCwI928EqhIkYV5D-281" value="" style="endArrow=classic;html=1;rounded=0;" parent="1" edge="1">
          <mxGeometry width="50" height="50" relative="1" as="geometry">
            <mxPoint x="420" y="2796" as="sourcePoint" />
            <mxPoint x="400" y="2818" as="targetPoint" />
            <Array as="points">
              <mxPoint x="400" y="2818" />
            </Array>
          </mxGeometry>
        </mxCell>
        <mxCell id="5EpYRCwI928EqhIkYV5D-282" value="2.1.1: updateUser()" style="text;html=1;align=center;verticalAlign=middle;whiteSpace=wrap;rounded=0;" parent="1" vertex="1">
          <mxGeometry x="280" y="2788" width="120" height="30" as="geometry" />
        </mxCell>
        <mxCell id="5EpYRCwI928EqhIkYV5D-283" value="&lt;b&gt;sd&lt;/b&gt;&amp;nbsp;자전거 대여 정보 조회" style="shape=umlFrame;whiteSpace=wrap;html=1;pointerEvents=0;width=150;height=30;" parent="1" vertex="1">
          <mxGeometry x="60" y="3090" width="570" height="370" as="geometry" />
        </mxCell>
        <mxCell id="5EpYRCwI928EqhIkYV5D-284" value=": User" style="shape=umlActor;verticalLabelPosition=bottom;verticalAlign=top;html=1;" parent="1" vertex="1">
          <mxGeometry x="110" y="3190" width="30" height="60" as="geometry" />
        </mxCell>
        <mxCell id="5EpYRCwI928EqhIkYV5D-285" value="&lt;font style=&quot;font-size: 11px;&quot;&gt;: Rental&lt;/font&gt;&lt;div&gt;&lt;font style=&quot;font-size: 11px;&quot;&gt;Bicycle&lt;/font&gt;&lt;div&gt;&lt;font style=&quot;font-size: 11px;&quot;&gt;DetailsUI&lt;/font&gt;&lt;/div&gt;&lt;/div&gt;" style="shape=umlBoundary;whiteSpace=wrap;html=1;" parent="1" vertex="1">
          <mxGeometry x="220" y="3180" width="100" height="80" as="geometry" />
        </mxCell>
        <mxCell id="5EpYRCwI928EqhIkYV5D-286" value="&lt;font style=&quot;font-size: 11px;&quot;&gt;: Rental&lt;/font&gt;&lt;div&gt;&lt;font style=&quot;font-size: 11px;&quot;&gt;Bicycle&lt;/font&gt;&lt;/div&gt;&lt;div&gt;&lt;font style=&quot;font-size: 11px;&quot;&gt;Details&lt;/font&gt;&lt;/div&gt;" style="ellipse;shape=umlControl;whiteSpace=wrap;html=1;" parent="1" vertex="1">
          <mxGeometry x="414" y="3180" width="70" height="80" as="geometry" />
        </mxCell>
        <mxCell id="5EpYRCwI928EqhIkYV5D-287" value="&lt;div&gt;: Bicycle&lt;/div&gt;" style="ellipse;shape=umlEntity;whiteSpace=wrap;html=1;" parent="1" vertex="1">
          <mxGeometry x="460" y="3320" width="80" height="80" as="geometry" />
        </mxCell>
        <mxCell id="5EpYRCwI928EqhIkYV5D-288" value="" style="endArrow=none;html=1;rounded=0;exitX=-0.007;exitY=0.503;exitDx=0;exitDy=0;exitPerimeter=0;" parent="1" source="5EpYRCwI928EqhIkYV5D-285" target="5EpYRCwI928EqhIkYV5D-284" edge="1">
          <mxGeometry width="50" height="50" relative="1" as="geometry">
            <mxPoint x="200" y="3220" as="sourcePoint" />
            <mxPoint x="170" y="3220" as="targetPoint" />
          </mxGeometry>
        </mxCell>
        <mxCell id="5EpYRCwI928EqhIkYV5D-289" value="" style="endArrow=classic;html=1;rounded=0;" parent="1" edge="1">
          <mxGeometry width="50" height="50" relative="1" as="geometry">
            <mxPoint x="160" y="3210" as="sourcePoint" />
            <mxPoint x="210" y="3210" as="targetPoint" />
          </mxGeometry>
        </mxCell>
        <mxCell id="5EpYRCwI928EqhIkYV5D-290" value="2: getRentedBicycle()" style="text;html=1;align=center;verticalAlign=middle;whiteSpace=wrap;rounded=0;" parent="1" vertex="1">
          <mxGeometry x="130" y="3160" width="120" height="30" as="geometry" />
        </mxCell>
        <mxCell id="5EpYRCwI928EqhIkYV5D-291" value="" style="endArrow=classic;html=1;rounded=0;" parent="1" edge="1">
          <mxGeometry width="50" height="50" relative="1" as="geometry">
            <mxPoint x="350" y="3210" as="sourcePoint" />
            <mxPoint x="400" y="3210" as="targetPoint" />
          </mxGeometry>
        </mxCell>
        <mxCell id="5EpYRCwI928EqhIkYV5D-292" value="" style="endArrow=none;html=1;rounded=0;exitX=0.006;exitY=0.497;exitDx=0;exitDy=0;exitPerimeter=0;entryX=0.997;entryY=0.535;entryDx=0;entryDy=0;entryPerimeter=0;" parent="1" source="5EpYRCwI928EqhIkYV5D-286" edge="1">
          <mxGeometry width="50" height="50" relative="1" as="geometry">
            <mxPoint x="414.71999999999997" y="3220.36" as="sourcePoint" />
            <mxPoint x="320.00000000000006" y="3219.6400000000003" as="targetPoint" />
          </mxGeometry>
        </mxCell>
        <mxCell id="5EpYRCwI928EqhIkYV5D-293" value="2.1: getRentedBicycleList()" style="text;html=1;align=center;verticalAlign=middle;whiteSpace=wrap;rounded=0;" parent="1" vertex="1">
          <mxGeometry x="295" y="3160" width="160" height="30" as="geometry" />
        </mxCell>
        <mxCell id="5EpYRCwI928EqhIkYV5D-294" value="" style="endArrow=classic;html=1;rounded=0;" parent="1" edge="1">
          <mxGeometry width="50" height="50" relative="1" as="geometry">
            <mxPoint x="400" y="3230" as="sourcePoint" />
            <mxPoint x="350" y="3230" as="targetPoint" />
          </mxGeometry>
        </mxCell>
        <mxCell id="5EpYRCwI928EqhIkYV5D-295" value="1: startInterface()" style="text;html=1;align=center;verticalAlign=middle;whiteSpace=wrap;rounded=0;" parent="1" vertex="1">
          <mxGeometry x="320" y="3230" width="100" height="30" as="geometry" />
        </mxCell>
        <mxCell id="5EpYRCwI928EqhIkYV5D-296" value="" style="endArrow=none;html=1;rounded=0;entryX=0.513;entryY=1.011;entryDx=0;entryDy=0;entryPerimeter=0;exitX=0.5;exitY=0;exitDx=0;exitDy=0;" parent="1" source="5EpYRCwI928EqhIkYV5D-287" edge="1">
          <mxGeometry width="50" height="50" relative="1" as="geometry">
            <mxPoint x="448.55" y="3319.12" as="sourcePoint" />
            <mxPoint x="449.4600000000001" y="3260" as="targetPoint" />
          </mxGeometry>
        </mxCell>
        <mxCell id="5EpYRCwI928EqhIkYV5D-297" value="2.1.2: * [For all user&#39;s bicycles] getBicycleDetails()" style="text;html=1;align=center;verticalAlign=middle;whiteSpace=wrap;rounded=0;" parent="1" vertex="1">
          <mxGeometry x="500" y="3270" width="120" height="30" as="geometry" />
        </mxCell>
        <mxCell id="5EpYRCwI928EqhIkYV5D-298" value=": RentalUser" style="ellipse;shape=umlEntity;whiteSpace=wrap;html=1;" parent="1" vertex="1">
          <mxGeometry x="360" y="3320" width="80" height="80" as="geometry" />
        </mxCell>
        <mxCell id="5EpYRCwI928EqhIkYV5D-299" value="" style="endArrow=none;html=1;rounded=0;entryX=0.513;entryY=1.011;entryDx=0;entryDy=0;entryPerimeter=0;exitX=0.5;exitY=0;exitDx=0;exitDy=0;" parent="1" edge="1">
          <mxGeometry width="50" height="50" relative="1" as="geometry">
            <mxPoint x="450.53999999999996" y="3260" as="sourcePoint" />
            <mxPoint x="400.00000000000006" y="3320" as="targetPoint" />
          </mxGeometry>
        </mxCell>
        <mxCell id="5EpYRCwI928EqhIkYV5D-300" value="" style="endArrow=classic;html=1;rounded=0;" parent="1" edge="1">
          <mxGeometry width="50" height="50" relative="1" as="geometry">
            <mxPoint x="480" y="3278" as="sourcePoint" />
            <mxPoint x="500" y="3300" as="targetPoint" />
            <Array as="points">
              <mxPoint x="500" y="3300" />
            </Array>
          </mxGeometry>
        </mxCell>
        <mxCell id="5EpYRCwI928EqhIkYV5D-301" value="" style="endArrow=classic;html=1;rounded=0;" parent="1" edge="1">
          <mxGeometry width="50" height="50" relative="1" as="geometry">
            <mxPoint x="420" y="3278" as="sourcePoint" />
            <mxPoint x="400" y="3300" as="targetPoint" />
            <Array as="points">
              <mxPoint x="400" y="3300" />
            </Array>
          </mxGeometry>
        </mxCell>
        <mxCell id="5EpYRCwI928EqhIkYV5D-302" value="2.1.1: listUsers()" style="text;html=1;align=center;verticalAlign=middle;whiteSpace=wrap;rounded=0;" parent="1" vertex="1">
          <mxGeometry x="289" y="3270" width="120" height="30" as="geometry" />
        </mxCell>
      </root>
    </mxGraphModel>
  </diagram>
</mxfile>
